<?xml version="1.0" encoding="UTF-8" standalone="no"?>
<!-- Created with Inkscape (http://www.inkscape.org/) -->

<svg
   version="1.1"
   id="svg1"
   width="802.64734"
   height="802.6474"
   viewBox="0 0 802.64734 802.6474"
   xmlns="http://www.w3.org/2000/svg"
   xmlns:svg="http://www.w3.org/2000/svg">
  <defs
     id="defs1" />
  <g
     id="g1"
     transform="translate(-1096.4362,-74.36869)">
    <g
       id="g42"
       transform="translate(19.76834,-52.715572)">
      <circle
         style="fill:#ffffff;fill-opacity:1;stroke:none;stroke-width:19.5487;stroke-dasharray:none;stroke-opacity:1"
         id="path41-9-6"
         cx="1477.9915"
         cy="528.40796"
         r="391.54935" />
      <path
         id="path1"
         style="display:inline;fill:#000000;stroke-width:0.865747"
         d="m 1480.3226,401.3651 c -70.7031,-0.25206 -165.2176,0.28567 -170.2774,0.9693 -12.2502,1.65541 -21.1453,7.06016 -29.2235,17.75509 -4.4776,5.92837 -9.1338,16.78834 -11.6049,27.07501 -2.5783,10.73162 -2.9891,30.81134 -0.8578,41.84915 2.5925,13.42434 6.9428,22.58824 13.7739,29.01167 4.1697,3.92071 13.0081,10.13272 17.0523,11.98547 3.0477,1.39631 19.19,4.15771 25.9602,4.44071 8.8788,0.37116 -6.366,1.60057 -21.2506,1.71358 -14.5819,0.11078 -23.0168,0.73685 -27.2104,3.22139 -2.0911,1.23876 -3.7427,3.80199 -5.9735,7.07165 -2.3665,3.46851 -18.8143,22.76573 -21.1449,25.6576 l -15.8598,20.56301 -5.9377,7.60438 h 8.8352 c 5.0064,0.0267 9.9974,-0.11581 15.0005,-0.49235 7.6649,-0.57679 34.3359,-1.19662 94.093,-1.58088 99.1293,-0.63743 95.1027,-0.43157 104.6614,-5.36192 11.1156,-5.73328 22.0765,-19.5502 26.5194,-33.4293 3.2571,-10.17431 3.8757,-33.40837 1.277,-47.95728 -2.4723,-13.84133 -11.3185,-27.47638 -21.8391,-33.662 -5.9289,-3.48581 -18.8136,-7.99883 -25.7478,-9.01796 -2.3025,-0.33839 -6.8783,-1.2421 -10.1688,-2.00782 -3.2907,-0.76572 -7.5725,-1.398 -9.5147,-1.40588 -1.9423,-0.007 -4.0015,-0.39974 -4.5744,-0.86929 -1.0776,-0.88301 37.3719,-2.02315 66.6594,-1.97706 10.6777,0.0169 16.6882,-0.35612 17.7626,-1.10008 2.5226,-1.74653 2.0612,-3.32988 -8.2896,-28.38665 l -5.4308,-13.14516 2.3876,-7.04088 c 1.3127,-3.87199 2.8895,-8.03787 3.5056,-9.25643 1.1081,-2.1921 1.0814,-2.21398 -2.5824,-2.22707 z m 22.5573,0.0828 v 70.81658 70.81852 l -10.4662,13.97792 c -19.3138,25.79681 -23.8041,31.34353 -29.3053,36.19295 -1.9885,1.75295 -3.6155,3.38266 -3.6155,3.62142 0,0.23877 24.4917,0.43741 54.424,0.44233 l 54.4241,0.009 v -25.10789 c 0,-27.43899 -0.01,-27.4083 4.2399,-22.39967 1.2623,1.48934 4.3357,4.90645 6.8298,7.59284 2.494,2.68608 7.1101,8.00368 10.258,11.81623 9.8412,11.91795 18.1947,21.5144 20.2351,23.24589 1.0788,0.91566 4.2439,4.51256 7.0319,7.99095 2.7877,3.47868 7.7227,9.12936 10.9672,12.5586 3.2445,3.42922 5.8991,6.54155 5.8991,6.91587 0,1.55322 -3.7216,5.01404 -7.9937,7.43321 -9.383,5.31366 -19.1163,10.2408 -20.8417,10.55077 -0.6768,0.12159 7.675,0.45394 18.5596,0.73851 v 0.002 c 40.5487,1.06015 73.2078,0.5227 74.949,0.47672 9.9862,0.26638 18.4387,0.088 27.6462,0.81763 l -1.4407,-3.22715 c -1.9381,-4.34246 -9.0741,-14.68032 -16.1734,-23.43053 -5.3832,-6.63508 -8.5709,-10.41501 -22.1291,-26.23649 -2.7511,-3.21027 -8.2597,-9.85721 -12.2399,-14.77028 -3.9803,-4.91337 -9.0327,-10.88562 -11.2273,-13.2721 -2.1946,-2.38649 -3.9901,-4.88339 -3.9901,-5.54847 0,-0.90723 3.5647,-1.24993 14.272,-1.36933 15.5472,-0.17338 22.5021,-1.47695 30.2552,-5.6754 11.4881,-6.22072 22.5461,-23.21516 26.3141,-40.43943 2.6334,-12.03755 3.1545,-37.91298 1.0466,-51.9287 -2.0969,-13.94197 -7.088,-26.03584 -14.9663,-36.25643 -6.4825,-8.40964 -13.1413,-13.19529 -21.1465,-15.19916 -2.8122,-0.70393 -34.9853,-1.06528 -98.0013,-1.102 z m 81.2762,22.48621 c 30.0438,0.0243 62.9762,0.30011 75.1453,0.80775 25.9908,1.0842 28.5479,1.508 36.541,6.0716 11.8538,6.76777 19.444,26.68425 18.393,48.26114 -0.7906,16.22813 -4.7993,30.77608 -10.2937,37.36226 -7.9425,9.52054 -16.0193,10.91515 -63.5076,10.95847 l -24.9567,0.0213 7.408,9.10834 c 4.0747,5.00928 9.3178,11.57826 11.6511,14.59527 2.3335,3.0171 4.814,5.89858 5.5126,6.40429 0.6985,0.50571 7.1794,8.00488 14.4014,16.66467 7.2217,8.65977 14.3511,16.89327 15.8418,18.2936 1.4911,1.40043 4.5974,4.94658 6.9027,7.88133 2.3055,2.93455 5.3884,6.5158 6.8506,7.95825 1.4623,1.44246 3.728,3.87956 5.0353,5.41577 4.4575,5.23786 10.3674,11.65462 11.0371,11.98354 0.3674,0.18055 0.6675,0.73443 0.6675,1.23087 0,0.51894 -6.9242,0.90198 -16.2895,0.90198 h -16.291 l -11.3016,-13.04521 c -6.2159,-7.17512 -12.1594,-14.05003 -13.2061,-15.27611 -1.0466,-1.22606 -4.4676,-4.77064 -7.6028,-7.87748 -3.1354,-3.10702 -9.3011,-10.3341 -13.7012,-16.05883 -4.4002,-5.72466 -10.399,-13.01378 -13.3296,-16.19731 -2.9304,-3.18384 -5.8419,-6.53189 -6.4698,-7.44092 -3.4893,-5.05131 -22.5767,-27.89792 -25.1426,-30.09445 l -3.021,-2.58673 v -11.68548 -11.68544 h 47.4353 c 40.2883,0 48.0246,-0.22496 51.3437,-1.50011 9.205,-3.53635 13.7762,-14.44759 10.414,-24.85754 -1.7888,-5.53836 -3.9914,-7.96475 -9.0538,-9.97186 -4.3128,-1.71018 -8.3929,-1.83266 -63.1478,-1.9136 l -58.5377,-0.0865 0.3078,58.79843 0.3063,58.79842 -24.1674,0.26155 c -16.3645,0.17607 -24.1674,-0.0713 -24.1674,-0.76543 0,-0.5637 2.4834,-4.95196 5.5186,-9.75262 15.7909,-24.97585 16.9318,-27.2302 15.7781,-31.15606 -0.906,-3.08215 -1.0293,-108.40637 -0.1279,-109.12701 0.622,-0.49728 27.7802,-0.72437 57.824,-0.70006 z m -131.0708,1.07508 8.1514,15.17224 c 4.4829,8.3436 8.1515,15.84593 8.1515,16.67234 0,2.57497 -2.8403,2.8875 -18.2089,2.00205 -8.1959,-0.47225 -39.9079,-0.85966 -70.468,-0.85966 -52.4011,0 -55.7751,0.10479 -59.2454,1.83667 -7.417,3.70149 -8.7534,13.13897 -2.5348,17.89937 1.8884,1.44539 4.711,1.99501 13.0648,2.5444 10.2257,0.67248 23.3923,2.37711 52.1405,6.74856 7.3262,1.1138 17.945,2.68081 23.5964,3.48293 5.6516,0.8023 11.1323,1.87076 12.1789,2.37325 1.0467,0.50248 4.8146,1.41851 8.3729,2.03668 15.48,2.68916 23.091,7.97987 27.6268,19.20523 2.2852,5.65471 2.8456,27.38392 0.9114,35.33904 -2.571,10.57391 -10.0048,17.93791 -23.6573,23.43629 -5.2085,2.09767 -6.0264,2.12312 -81.1887,2.49633 -43.337,0.21519 -75.9272,0.005 -75.9272,-0.48849 0,-0.47584 1.9115,-4.12928 4.2473,-8.11789 4.6559,-7.95005 7.4582,-14.51582 8.272,-19.386 0.3345,-2.00243 1.125,-3.4023 2.1644,-3.82911 0.901,-0.36996 30.7648,-0.40317 66.3606,-0.073 69.9588,0.64756 70.0261,0.64312 72.945,-4.45031 1.3253,-2.3127 1.3959,-3.01842 0.565,-5.61386 -0.5227,-1.63282 -1.6873,-3.58501 -2.5869,-4.33877 -3.0009,-2.51439 -15.4127,-5.63321 -30.1794,-7.58323 -3.5584,-0.46994 -11.2657,-1.561 -17.1263,-2.42326 -5.8609,-0.86224 -13.7393,-1.99827 -17.5071,-2.52517 -3.7677,-0.52708 -7.707,-1.182 -8.7536,-1.45589 -1.0466,-0.27385 -5.157,-0.92727 -9.1341,-1.45009 -20.9895,-2.7592 -29.0742,-3.97055 -29.6694,-4.44647 -0.3628,-0.29009 -2.324,-0.93546 -4.3591,-1.43472 -11.0793,-2.71827 -18.2741,-9.58882 -22.4159,-21.40536 -1.9747,-5.63452 -2.2508,-7.55888 -2.2968,-16.02999 -0.041,-7.62076 0.2962,-10.83223 1.6204,-15.4165 4.0315,-13.95731 8.661,-20.10519 18.6814,-24.80176 10.3627,-4.85697 14.3922,-5.10604 82.6188,-5.10998 z M 1223.9001,603.3276 c -0.01,-6e-5 -0.022,0.004 -0.029,0.004 0.068,0.007 0.1367,0.0157 0.2052,0.023 -0.073,-0.0167 -0.1196,-0.0263 -0.1756,-0.027 z m 501.1092,52.11527 c -0.01,0.0165 -0.021,0.055 -0.027,0.0712 0.01,-0.005 0.021,-0.008 0.031,-0.0134 0,-0.0193 0,-0.0384 0,-0.0577 z" />
      <circle
         style="fill:none;stroke:#000000;stroke-width:40;stroke-dasharray:none;stroke-opacity:1"
         id="path41-8"
         cx="1477.9915"
         cy="528.40796"
         r="305.88211" />
      <circle
         style="fill:none;stroke:#38bdf8;stroke-width:15.8003;stroke-dasharray:none;stroke-opacity:1"
         id="path41"
         cx="1477.9915"
         cy="528.40796"
         r="340.83383" />
      <circle
         style="fill:none;stroke:#000000;stroke-width:19.5487;stroke-dasharray:none;stroke-opacity:1"
         id="path41-9"
         cx="1477.9915"
         cy="528.40796"
         r="391.54935" />
    </g>
  </g>
</svg>
